<svg xmlns="http://www.w3.org/2000/svg">
  <symbol id="github" viewBox="0 0 24 24">
    <path fill="currentColor" d="M12 .8C5.7.8.7 5.9.7 12.2c0 5 3.2 9.3 7.6 10.8.6.1.8-.2.8-.5v-2.1c-3.1.7-3.8-1.3-3.8-1.3-.5-1.3-1.3-1.7-1.3-1.7-1-.7.1-.7.1-.7 1.1.1 1.7 1.2 1.7 1.2 1 1.8 2.7 1.3 3.3 1 .1-.8.4-1.3.7-1.6-2.5-.3-5.1-1.3-5.1-5.7 0-1.3.4-2.3 1.2-3.1-.1-.3-.5-1.5.1-3 0 0 .9-.3 3.1 1.2a10.3 10.3 0 0 1 5.6 0c2.1-1.5 3.1-1.2 3.1-1.2.6 1.5.2 2.7.1 3 .7.8 1.2 1.8 1.2 3.1 0 4.4-2.6 5.4-5.1 5.7.4.3.8 1 .8 2.1v3.1c0 .3.2.7.8.5a11.5 11.5 0 0 0 7.6-10.8C23.3 5.9 18.3.8 12 .8Z"/>
  </symbol>

  <symbol id="linkedin" viewBox="0 0 24 24">
    <path fill="currentColor" d="M4.2 7.4H.8v15.8h3.4V7.4ZM2.5.8a2 2 0 1 0 0 4 2 2 0 0 0 0-4Zm8 6.6H7.2v15.8h3.4v-8.8c0-2.3.4-4.5 3.3-4.5 2.8 0 2.9 2.7 2.9 4.7v8.6h3.4v-9.7c0-4.8-1-6.7-5-6.7-1.9 0-3.3 1.1-4.6 2.5h-.1V7.4Z"/>
  </symbol>

  <symbol id="mail" viewBox="0 0 24 24" fill="none" stroke="currentColor" stroke-width="1.8" stroke-linecap="square" stroke-linejoin="miter">
    <rect x="2.5" y="4.5" width="19" height="15"/>
    <path d="m3.5 6 8.5 7 8.5-7"/>
  </symbol>

  <symbol id="arrow-right" viewBox="0 0 24 24" fill="none" stroke="currentColor" stroke-width="1.8" stroke-linecap="square" stroke-linejoin="miter">
    <path d="M4 12h15M14 6l6 6-6 6"/>
  </symbol>

  <symbol id="calendar" viewBox="0 0 24 24" fill="none" stroke="currentColor" stroke-width="1.8" stroke-linecap="square" stroke-linejoin="miter">
    <rect x="3" y="5" width="18" height="16"/>
    <path d="M7 2v6M17 2v6M3 10h18"/>
  </symbol>

  <symbol id="pin" viewBox="0 0 24 24" fill="none" stroke="currentColor" stroke-width="1.8" stroke-linecap="square" stroke-linejoin="miter">
    <path d="M20 10c0 5-8 12-8 12S4 15 4 10a8 8 0 1 1 16 0Z"/>
    <rect x="10" y="8" width="4" height="4"/>
  </symbol>

  <symbol id="data-grid" viewBox="0 0 24 24" fill="none" stroke="currentColor" stroke-width="1.7" stroke-linecap="square" stroke-linejoin="miter">
    <rect x="3" y="3" width="18" height="18"/>
    <path d="M3 9h18M3 15h18M9 3v18M15 3v18"/>
    <path d="M10.5 10.5h3v3h-3z" fill="currentColor" stroke="none"/>
  </symbol>

  <symbol id="network" viewBox="0 0 24 24" fill="none" stroke="currentColor" stroke-width="1.7" stroke-linecap="square" stroke-linejoin="miter">
    <rect x="2.5" y="3" width="5" height="5"/>
    <rect x="16.5" y="3" width="5" height="5"/>
    <rect x="9.5" y="16" width="5" height="5"/>
    <path d="M7.5 5.5h9M5 8v4h7v4M19 8v4h-7"/>
  </symbol>

  <symbol id="cube" viewBox="0 0 24 24" fill="none" stroke="currentColor" stroke-width="1.7" stroke-linecap="square" stroke-linejoin="miter">
    <path d="m12 2.5 9 5v9l-9 5-9-5v-9l9-5Z"/>
    <path d="m3.5 7.8 8.5 4.7 8.5-4.7M12 12.5v9"/>
  </symbol>

  <symbol id="branch" viewBox="0 0 24 24" fill="none" stroke="currentColor" stroke-width="1.7" stroke-linecap="square" stroke-linejoin="miter">
    <rect x="2.5" y="3" width="5" height="5"/>
    <rect x="16.5" y="3" width="5" height="5"/>
    <rect x="9.5" y="16" width="5" height="5"/>
    <path d="M5 8v3.5h7V16M19 8v3.5h-7"/>
  </symbol>

  <symbol id="document-search" viewBox="0 0 24 24" fill="none" stroke="currentColor" stroke-width="1.7" stroke-linecap="square" stroke-linejoin="miter">
    <path d="M4 2.5h10l5 5V13M14 2.5v5h5M4 2.5v19h7"/>
    <circle cx="16" cy="17" r="4"/>
    <path d="m19 20 3 3M7 11h7M7 15h4"/>
  </symbol>

  <symbol id="scan-face" viewBox="0 0 24 24" fill="none" stroke="currentColor" stroke-width="1.7" stroke-linecap="square" stroke-linejoin="miter">
    <path d="M3 8V3h5M16 3h5v5M21 16v5h-5M8 21H3v-5"/>
    <path d="M8 10h1M15 10h1M9 16c1.8 1.3 4.2 1.3 6 0M7 13c0-4 2-6 5-6s5 2 5 6"/>
  </symbol>
</svg>
