<svg xmlns="http://www.w3.org/2000/svg" viewBox="0 0 800 600" role="img" aria-labelledby="title desc">
  <title id="title">Poker behavior vision schematic</title>
  <desc id="desc">Face landmarks and behavioral channels produce a live bluff score.</desc>
  <defs>
    <pattern id="grid" width="24" height="24" patternUnits="userSpaceOnUse">
      <path d="M24 0H0V24" fill="none" stroke="#071426" stroke-opacity=".08"/>
    </pattern>
  </defs>
  <rect width="800" height="600" fill="#dce8ff"/>
  <rect width="800" height="600" fill="url(#grid)"/>
  <g font-family="Consolas, monospace" font-size="13" font-weight="700" fill="#0b55e5">
    <text x="42" y="52">CAM_02 / 30FPS</text>
    <text x="558" y="52">SIGNALS</text>
  </g>

  <g stroke="#071426" stroke-width="4">
    <rect x="54" y="92" width="112" height="168" fill="#0b55e5" transform="rotate(-8 110 176)"/>
    <text x="82" y="150" fill="#fbfdff" stroke="none" font-family="Consolas, monospace" font-size="42" font-weight="700">A</text>
    <rect x="380" y="92" width="112" height="168" fill="#ff7a68" transform="rotate(8 436 176)"/>
    <text x="414" y="150" fill="#071426" stroke="none" font-family="Consolas, monospace" font-size="42" font-weight="700">K</text>
  </g>

  <g fill="none" stroke="#0b55e5" stroke-width="4" stroke-linecap="square">
    <path d="M104 132v-42h42M442 132v-42h-42M104 394v42h42M442 394v42h-42"/>
  </g>
  <path d="M188 140c18-58 60-88 106-88s88 30 106 88c20 66 10 180-30 238-22 32-50 50-76 50s-54-18-76-50c-40-58-50-172-30-238Z" fill="#73dcff" stroke="#071426" stroke-width="5"/>
  <g fill="none" stroke="#071426" stroke-width="4">
    <path d="M218 214c25-17 50-17 74 0M296 214c25-17 50-17 74 0"/>
    <path d="M234 236c14 9 28 9 42 0M312 236c14 9 28 9 42 0" stroke="#6ff2c1"/>
    <path d="M294 238v66l20 10"/>
    <path d="M248 346c30-16 62-16 92 0" stroke="#ff7a68"/>
  </g>
  <g fill="#0b55e5"><circle cx="218" cy="214" r="5"/><circle cx="244" cy="206" r="5"/><circle cx="270" cy="210" r="5"/><circle cx="318" cy="210" r="5"/><circle cx="344" cy="206" r="5"/><circle cx="370" cy="214" r="5"/><circle cx="208" cy="282" r="5"/><circle cx="224" cy="336" r="5"/><circle cx="256" cy="382" r="5"/><circle cx="294" cy="408" r="5"/><circle cx="332" cy="382" r="5"/><circle cx="364" cy="336" r="5"/><circle cx="380" cy="282" r="5"/></g>
  <g fill="#6ff2c1" stroke="#071426" stroke-width="2"><circle cx="255" cy="234" r="6"/><circle cx="333" cy="234" r="6"/></g>
  <g fill="#ff7a68" stroke="#071426" stroke-width="2"><circle cx="266" cy="342" r="6"/><circle cx="294" cy="338" r="6"/><circle cx="322" cy="342" r="6"/></g>

  <g font-family="Consolas, monospace" font-size="12">
    <text x="528" y="108" fill="#071426">blink_rate</text><text x="744" y="108" fill="#0b55e5" text-anchor="end">0.81</text>
    <rect x="528" y="122" width="216" height="9" fill="#bdc8d7"/><rect x="528" y="122" width="175" height="9" fill="#6ff2c1"/>
    <text x="528" y="166" fill="#071426">lip_motion</text><text x="744" y="166" fill="#0b55e5" text-anchor="end">0.73</text>
    <rect x="528" y="180" width="216" height="9" fill="#bdc8d7"/><rect x="528" y="180" width="158" height="9" fill="#ff7a68"/>
    <text x="528" y="224" fill="#071426">head_vector</text><text x="744" y="224" fill="#0b55e5" text-anchor="end">0.48</text>
    <rect x="528" y="238" width="216" height="9" fill="#bdc8d7"/><rect x="528" y="238" width="104" height="9" fill="#73dcff"/>
    <text x="528" y="282" fill="#071426">emotion_delta</text><text x="744" y="282" fill="#0b55e5" text-anchor="end">0.62</text>
    <rect x="528" y="296" width="216" height="9" fill="#bdc8d7"/><rect x="528" y="296" width="134" height="9" fill="#0b55e5"/>
  </g>
  <rect x="528" y="342" width="216" height="108" fill="#071426"/>
  <text x="548" y="376" fill="#73dcff" font-family="Consolas, monospace" font-size="12">bluff_score</text>
  <text x="548" y="426" fill="#ff7a68" font-family="Consolas, monospace" font-size="44" font-weight="700">68</text>
  <text x="624" y="426" fill="#6ff2c1" font-family="Consolas, monospace" font-size="12">ELEVATED</text>

  <path d="M42 520h38l20-18 22 34 24-52 28 38 30-12 32 8 30-30 34 34 34-46 34 38 34-16 38 22 38-42 36 36 40-18 38 26 38-48 40 40 38-24 40 14h44" fill="none" stroke="#0b55e5" stroke-width="4"/>
  <g fill="#ff7a68"><rect x="142" y="478" width="8" height="8"/><rect x="344" y="472" width="8" height="8"/><rect x="526" y="474" width="8" height="8"/><rect x="678" y="472" width="8" height="8"/></g>
</svg>
